<?xml version="1.0" encoding="UTF-8"?>
<svg xmlns="http://www.w3.org/2000/svg"
     xmlns:xlink="http://www.w3.org/1999/xlink"
     xmlns:gadfly="http://www.gadflyjl.org/ns"
     version="1.2"
     width="140mm" height="80mm" viewBox="0 0 140 80"
     stroke="none"
     fill="#000000"
     stroke-width="0.3"
     font-size="3.88"
>
<defs>
  <marker id="arrow" markerWidth="15" markerHeight="7" refX="5" refY="3.5" orient="auto" markerUnits="strokeWidth">
    <path d="M0,0 L15,3.5 L0,7 z" stroke="context-stroke" fill="context-stroke"/>
  </marker>
</defs>
<g class="plotroot xscalable yscalable" id="img-2f85eee3-1">
  <g font-size="3.88" font-family="'PT Sans','Helvetica Neue','Helvetica',sans-serif" fill="#564A55" stroke="#000000" stroke-opacity="0.000" id="img-2f85eee3-2">
    <g transform="translate(68.65,68.39)">
      <g class="primitive">
        <text text-anchor="middle" dy="0.6em">x</text>
      </g>
    </g>
  </g>
  <g class="guide xlabels" font-size="2.82" font-family="'PT Sans Caption','Helvetica Neue','Helvetica',sans-serif" fill="#6C606B" id="img-2f85eee3-3">
    <g transform="translate(18.83,61.72)">
      <g class="primitive">
        <text text-anchor="middle" dy="0.6em">0</text>
      </g>
    </g>
    <g transform="translate(38.76,61.72)">
      <g class="primitive">
        <text text-anchor="middle" dy="0.6em">5</text>
      </g>
    </g>
    <g transform="translate(58.68,61.72)">
      <g class="primitive">
        <text text-anchor="middle" dy="0.6em">10</text>
      </g>
    </g>
    <g transform="translate(78.61,61.72)">
      <g class="primitive">
        <text text-anchor="middle" dy="0.6em">15</text>
      </g>
    </g>
    <g transform="translate(98.54,61.72)">
      <g class="primitive">
        <text text-anchor="middle" dy="0.6em">20</text>
      </g>
    </g>
    <g transform="translate(118.47,61.72)">
      <g class="primitive">
        <text text-anchor="middle" dy="0.6em">25</text>
      </g>
    </g>
  </g>
  <g class="guide colorkey" id="img-2f85eee3-4">
    <g fill="#4C404B" font-size="2.82" font-family="'PT Sans','Helvetica Neue','Helvetica',sans-serif" id="img-2f85eee3-5">
      <g transform="translate(124.29,32.86)" id="img-2f85eee3-6" class="color_train_acc">
        <g class="primitive">
          <text dy="0.35em">train_acc</text>
        </g>
      </g>
      <g transform="translate(124.29,36.48)" id="img-2f85eee3-7" class="color_test_acc">
        <g class="primitive">
          <text dy="0.35em">test_acc</text>
        </g>
      </g>
    </g>
    <g stroke="#000000" stroke-opacity="0.000" id="img-2f85eee3-8">
      <g transform="translate(122.38,32.86)" id="img-2f85eee3-9" fill="#00BFFF" class="color_train_acc">
        <path d="M-0.91,-0.91 L 0.91 -0.91 0.91 0.91 -0.91 0.91 z" class="primitive"/>
      </g>
      <g transform="translate(122.38,36.48)" id="img-2f85eee3-10" fill="#D4CA3A" class="color_test_acc">
        <path d="M-0.91,-0.91 L 0.91 -0.91 0.91 0.91 -0.91 0.91 z" class="primitive"/>
      </g>
    </g>
    <g fill="#362A35" font-size="3.88" font-family="'PT Sans','Helvetica Neue','Helvetica',sans-serif" stroke="#000000" stroke-opacity="0.000" id="img-2f85eee3-11">
      <g transform="translate(121.47,29.04)" id="img-2f85eee3-12">
        <g class="primitive">
          <text>Color</text>
        </g>
      </g>
    </g>
  </g>
  <g clip-path="url(#img-2f85eee3-13)">
    <g id="img-2f85eee3-14">
      <g pointer-events="visible" fill="#000000" fill-opacity="0.000" stroke="#000000" stroke-opacity="0.000" class="guide background" id="img-2f85eee3-15">
        <g transform="translate(68.65,32.86)" id="img-2f85eee3-16">
          <path d="M-51.82,-27.86 L 51.82 -27.86 51.82 27.86 -51.82 27.86 z" class="primitive"/>
        </g>
      </g>
      <g class="guide ygridlines xfixed" stroke-dasharray="0.5,0.5" stroke-width="0.2" stroke="#D0D0E0" id="img-2f85eee3-17">
        <g transform="translate(68.65,58.72)" id="img-2f85eee3-18">
          <path fill="none" d="M-51.82,0 L 51.82 0" class="primitive"/>
        </g>
        <g transform="translate(68.65,32.86)" id="img-2f85eee3-19">
          <path fill="none" d="M-51.82,0 L 51.82 0" class="primitive"/>
        </g>
        <g transform="translate(68.65,7)" id="img-2f85eee3-20">
          <path fill="none" d="M-51.82,0 L 51.82 0" class="primitive"/>
        </g>
      </g>
      <g class="guide xgridlines yfixed" stroke-dasharray="0.5,0.5" stroke-width="0.2" stroke="#D0D0E0" id="img-2f85eee3-21">
        <g transform="translate(18.83,32.86)" id="img-2f85eee3-22">
          <path fill="none" d="M0,-27.86 L 0 27.86" class="primitive"/>
        </g>
        <g transform="translate(38.76,32.86)" id="img-2f85eee3-23">
          <path fill="none" d="M0,-27.86 L 0 27.86" class="primitive"/>
        </g>
        <g transform="translate(58.68,32.86)" id="img-2f85eee3-24">
          <path fill="none" d="M0,-27.86 L 0 27.86" class="primitive"/>
        </g>
        <g transform="translate(78.61,32.86)" id="img-2f85eee3-25">
          <path fill="none" d="M0,-27.86 L 0 27.86" class="primitive"/>
        </g>
        <g transform="translate(98.54,32.86)" id="img-2f85eee3-26">
          <path fill="none" d="M0,-27.86 L 0 27.86" class="primitive"/>
        </g>
        <g transform="translate(118.47,32.86)" id="img-2f85eee3-27">
          <path fill="none" d="M0,-27.86 L 0 27.86" class="primitive"/>
        </g>
      </g>
      <g class="plotpanel" id="img-2f85eee3-28">
        <metadata>
          <boundingbox value="16.825833333333335mm 5.0mm 103.6475mm 55.715mm"/>
          <unitbox value="-0.5017687347901353 1.0386734989848208 26.00353746958027 -1.0773469979696413"/>
        </metadata>
        <g stroke-width="0.3" fill="#000000" fill-opacity="0.000" class="geometry" id="img-2f85eee3-29">
          <g transform="translate(62.67,16.01)" id="img-2f85eee3-30" stroke="#00BFFF" stroke-dasharray="none" class="color_train_acc">
            <path fill="none" d="M-39.86,38.44 L -35.87 21.75 -31.89 4.38 -27.9 0.28 -23.92 -1.53 -19.93 -2.3 -15.94 -2.83 -11.96 -3.23 -7.97 -3.47 -3.99 -3.63 0 -3.78 3.99 -3.91 7.97 -4.06 11.96 -4.17 15.94 -4.28 19.93 -4.4 23.92 -4.46 27.9 -4.55 31.89 -4.65 35.87 -4.76 39.86 -4.85" class="primitive"/>
          </g>
          <g transform="translate(62.67,15.55)" id="img-2f85eee3-31" stroke="#D4CA3A" stroke-dasharray="none" class="color_test_acc">
            <path fill="none" d="M-39.86,38.82 L -35.87 22.05 -31.89 3.9 -27.9 -0.23 -23.92 -1.84 -19.93 -2.45 -15.94 -2.94 -11.96 -3.31 -7.97 -3.58 -3.99 -3.7 0 -3.82 3.99 -3.84 7.97 -3.98 11.96 -4.13 15.94 -4.21 19.93 -4.19 23.92 -4.36 27.9 -4.44 31.89 -4.51 35.87 -4.53 39.86 -4.68" class="primitive"/>
          </g>
        </g>
      </g>
    </g>
  </g>
  <g class="guide ylabels" font-size="2.82" font-family="'PT Sans Caption','Helvetica Neue','Helvetica',sans-serif" fill="#6C606B" id="img-2f85eee3-32">
    <g transform="translate(15.83,58.72)" id="img-2f85eee3-33">
      <g class="primitive">
        <text text-anchor="end" dy="0.35em">0.0</text>
      </g>
    </g>
    <g transform="translate(15.83,32.86)" id="img-2f85eee3-34">
      <g class="primitive">
        <text text-anchor="end" dy="0.35em">0.5</text>
      </g>
    </g>
    <g transform="translate(15.83,7)" id="img-2f85eee3-35">
      <g class="primitive">
        <text text-anchor="end" dy="0.35em">1.0</text>
      </g>
    </g>
  </g>
  <g font-size="3.88" font-family="'PT Sans','Helvetica Neue','Helvetica',sans-serif" fill="#564A55" stroke="#000000" stroke-opacity="0.000" id="img-2f85eee3-36">
    <g transform="translate(8.81,32.86)" id="img-2f85eee3-37">
      <g class="primitive">
        <text text-anchor="end" dy="0.35em">y</text>
      </g>
    </g>
  </g>
</g>
<defs>
  <clipPath id="img-2f85eee3-13">
    <path d="M16.83,5 L 120.47 5 120.47 60.72 16.83 60.72" />
  </clipPath>
</defs>
</svg>
